<svg width="48" height="49" viewBox="0 0 48 49" fill="none" xmlns="http://www.w3.org/2000/svg">
<path d="M29.0741 4.3467C27.3845 6.61384 25.9182 8.52029 25.7906 8.57182C25.6631 8.62334 19.8294 7.72164 12.8163 6.53655C5.8031 5.37722 0.0331748 4.42399 0.00129679 4.44975C-0.0624593 4.47552 2.23276 14.2654 5.10178 26.1936C7.93893 38.1219 10.2979 47.7829 10.3617 47.6541C10.3935 47.5511 9.7241 41.471 8.83152 34.2059C7.93893 26.915 7.20574 20.6031 7.14198 20.1909L7.07822 19.418L14.8883 18.98C19.1919 18.7482 23.3042 18.5421 24.0692 18.5421L25.4081 18.5163V15.9915V13.4925L28.8191 6.97452C30.9549 2.87822 32.3256 0.585319 32.485 0.791422C32.6763 1.04905 32.7401 1.04905 32.7401 0.817185C32.7401 -0.21333 31.8156 0.688371 29.0741 4.3467Z" fill="#3056D3"/>
<path d="M33.8877 0.73971C34.0152 0.945814 35.9279 3.36753 38.0956 6.09839L42.0803 11.0964L41.8572 12.8225L41.6659 14.5744L43.3554 14.7547C44.248 14.832 45.5231 14.9093 46.1607 14.9093H47.3402L47.6909 12.9771C48.2328 9.93706 48.424 10.1689 45.1087 9.47333L42.1441 8.82926L38.5419 5.24822C36.5654 3.26447 34.6527 1.35802 34.3021 0.997339C33.9514 0.636659 33.7601 0.533607 33.8877 0.73971Z" fill="#3056D3"/>
<path d="M33.3777 1.10041C33.3777 1.22923 34.4615 4.50111 35.7685 8.39131L38.1594 15.4761L37.8725 18.5934C37.6812 20.3195 37.5856 21.7365 37.6493 21.788C37.8087 21.9168 44.2481 21.1697 44.4394 20.9894C44.535 20.9121 44.8219 19.7785 45.0769 18.4904C45.6189 15.6822 45.6507 15.6822 42.5904 15.6822H40.4546L39.307 13.2863C38.7013 11.9981 37.1074 8.64894 35.8004 5.89231C34.4934 3.13568 33.4096 0.971598 33.3777 1.10041Z" fill="#3056D3"/>
<path d="M29.7436 10.504C28.3728 15.6308 27.2252 19.8301 27.1934 19.8301C27.1615 19.8559 24.3562 20.0105 20.9453 20.165C17.1836 20.3454 14.7609 20.5515 14.7609 20.7061C14.7928 20.8349 15.0159 23.2566 15.2391 26.0647L15.6535 31.1658L13.5177 39.3069C12.3382 43.7896 11.4137 47.4995 11.4775 47.5252C11.5412 47.5768 13.0076 43.8154 14.729 39.1781C16.4505 34.5407 18.0125 30.3929 18.2356 29.9807C18.6182 29.2336 18.8094 29.1563 23.7824 28.1773C26.6196 27.6105 29.0742 27.0953 29.2017 27.018C29.4886 26.8892 32.5489 2.33712 32.3576 1.64153C32.2938 1.40966 31.1144 5.40291 29.7436 10.504Z" fill="#3056D3"/>
<path d="M38.7969 22.6897C36.2467 22.9731 34.079 23.2823 33.9515 23.3596C33.824 23.4626 33.6964 25.1887 33.6327 27.224C33.5689 30.0321 33.6327 30.8823 33.9515 30.8823C34.2384 30.8823 42.4948 28.8471 42.8773 28.6667C42.9411 28.641 43.8974 22.7928 43.8974 22.329C43.8974 22.226 43.8018 22.1487 43.6743 22.1487C43.5149 22.1745 41.3472 22.4063 38.7969 22.6897Z" fill="#3056D3"/>
<path d="M27.1614 29.0532C25.2487 29.4397 23.2723 29.8261 22.7941 29.9291L21.9015 30.1095V33.0722V36.035L19.8932 38.534C18.7775 39.9251 16.4504 42.7848 14.7609 44.9232C13.0394 47.0357 11.86 48.6072 12.115 48.4011C12.37 48.195 15.2709 45.2323 18.5543 41.8316L24.5155 35.6485L28.0859 34.5922C30.158 33.9739 31.6562 33.3814 31.6881 33.1753C31.72 32.9692 31.8156 31.8098 31.8794 30.5475C32.0069 27.8939 32.3894 28.0227 27.1614 29.0532Z" fill="#3056D3"/>
</svg>
