<svg width="157" height="55" viewBox="0 0 157 55" fill="none" xmlns="http://www.w3.org/2000/svg">
<path d="M24.2284 7.04955C22.8205 9.38727 21.5985 11.3531 21.4922 11.4062C21.3859 11.4593 16.5245 10.5296 10.6802 9.30758C4.83592 8.11215 0.0276457 7.12924 0.00108066 7.15581C-0.0520494 7.18237 1.86063 17.2771 4.25149 29.5767C6.61578 41.8763 8.58159 51.8382 8.63472 51.7054C8.66128 51.5991 8.10342 45.3298 7.3596 37.8384C6.61578 30.3205 6.00478 23.8121 5.95165 23.3871L5.89852 22.5901L12.407 22.1385C15.9932 21.8994 19.4201 21.6869 20.0577 21.6869L21.1734 21.6603V19.0569V16.4801L24.0159 9.75918C25.7957 5.53534 26.938 3.17105 27.0709 3.38357C27.2302 3.64922 27.2834 3.64922 27.2834 3.41014C27.2834 2.34754 26.513 3.27731 24.2284 7.04955Z" fill="white"/>
<path d="M28.2397 3.33044C28.346 3.54296 29.9399 6.04008 31.7463 8.85597L35.0669 14.0096L34.881 15.7894L34.7216 17.5959L36.1295 17.7818C36.8734 17.8615 37.936 17.9412 38.4673 17.9412H39.4502L39.7424 15.9488C40.194 12.8142 40.3534 13.0532 37.5906 12.336L35.1201 11.6719L32.1182 7.97932C30.4712 5.93382 28.8773 3.968 28.5851 3.59609C28.2929 3.22418 28.1335 3.11792 28.2397 3.33044Z" fill="white"/>
<path d="M27.8147 3.70235C27.8147 3.83517 28.7179 7.20894 29.807 11.2203L31.7994 18.5256L31.5603 21.74C31.4009 23.5199 31.3213 24.981 31.3744 25.0341C31.5072 25.1669 36.8733 24.3965 37.0327 24.2106C37.1124 24.1309 37.3515 22.962 37.564 21.6338C38.0156 18.7382 38.0422 18.7382 35.492 18.7382H33.7121L32.7558 16.2676C32.251 14.9394 30.9228 11.4859 29.8336 8.64345C28.7444 5.80099 27.8412 3.56952 27.8147 3.70235Z" fill="white"/>
<path d="M24.7863 13.3986C23.644 18.685 22.6876 23.0151 22.6611 23.0151C22.6345 23.0417 20.2968 23.2011 17.4543 23.3605C14.3197 23.5464 12.3007 23.759 12.3007 23.9184C12.3273 24.0512 12.5132 26.5483 12.6992 29.4439L13.0445 34.7038L11.2647 43.0983C10.2818 47.7206 9.51138 51.546 9.56451 51.5726C9.61764 51.6257 10.8396 47.7472 12.2741 42.9655C13.7087 38.1838 15.0103 33.9068 15.1963 33.4818C15.5151 32.7114 15.6745 32.6317 19.8186 31.6222C22.1829 31.0378 24.2284 30.5065 24.3347 30.4268C24.5738 30.294 27.124 4.97748 26.9646 4.26022C26.9115 4.02114 25.9286 8.13872 24.7863 13.3986Z" fill="white"/>
<path d="M32.3307 25.9639C30.2055 26.2561 28.3991 26.5749 28.2929 26.6545C28.1866 26.7608 28.0803 28.5407 28.0272 30.6393C27.9741 33.5349 28.0272 34.4115 28.2929 34.4115C28.5319 34.4115 35.4123 32.3129 35.7311 32.1269C35.7842 32.1004 36.5812 26.0701 36.5812 25.5919C36.5812 25.4857 36.5015 25.406 36.3952 25.406C36.2624 25.4326 34.456 25.6716 32.3307 25.9639Z" fill="white"/>
<path d="M22.6345 32.5254C21.0406 32.9239 19.3935 33.3224 18.9951 33.4286L18.2512 33.6146V36.6696V39.7245L16.5776 42.3014C15.6479 43.7359 13.7086 46.6846 12.3007 48.8895C10.8662 51.0678 9.88326 52.6883 10.0958 52.4758C10.3083 52.2633 12.7257 49.2083 15.4619 45.7017L20.4296 39.3261L23.4049 38.2369C25.1316 37.5993 26.3801 36.9883 26.4067 36.7758C26.4333 36.5633 26.513 35.3679 26.5661 34.0662C26.6724 31.33 26.9911 31.4628 22.6345 32.5254Z" fill="white"/>
<path d="M47.624 37V14.664H57.672C58.696 14.664 59.6133 14.8347 60.424 15.176C61.256 15.496 61.96 15.9653 62.536 16.584C63.112 17.1813 63.5493 17.9067 63.848 18.76C64.1467 19.6133 64.296 20.552 64.296 21.576C64.296 22.6213 64.1467 23.5707 63.848 24.424C63.5493 25.256 63.112 25.9813 62.536 26.6C61.96 27.1973 61.256 27.6667 60.424 28.008C59.6133 28.328 58.696 28.488 57.672 28.488H51.848V37H47.624ZM51.848 24.84H57.288C58.0987 24.84 58.7387 24.6267 59.208 24.2C59.6773 23.752 59.912 23.1227 59.912 22.312V20.84C59.912 20.0293 59.6773 19.4107 59.208 18.984C58.7387 18.5573 58.0987 18.344 57.288 18.344H51.848V24.84ZM76.892 18.408V37H72.668V18.408H66.332V14.664H83.228V18.408H76.892ZM94.6733 37.384C93.2013 37.384 91.8679 37.1387 90.6733 36.648C89.4786 36.1573 88.4546 35.4213 87.6013 34.44C86.7693 33.4587 86.1186 32.2533 85.6493 30.824C85.1799 29.3947 84.9453 27.7307 84.9453 25.832C84.9453 23.9547 85.1799 22.3013 85.6493 20.872C86.1186 19.4213 86.7693 18.2053 87.6013 17.224C88.4546 16.2427 89.4786 15.5067 90.6733 15.016C91.8679 14.5253 93.2013 14.28 94.6733 14.28C96.1453 14.28 97.4786 14.5253 98.6733 15.016C99.8679 15.5067 100.892 16.2427 101.745 17.224C102.599 18.2053 103.249 19.4213 103.697 20.872C104.167 22.3013 104.401 23.9547 104.401 25.832C104.401 27.7307 104.167 29.3947 103.697 30.824C103.249 32.2533 102.599 33.4587 101.745 34.44C100.892 35.4213 99.8679 36.1573 98.6733 36.648C97.4786 37.1387 96.1453 37.384 94.6733 37.384ZM94.6733 33.64C96.2733 33.64 97.5426 33.1067 98.4813 32.04C99.4413 30.9733 99.9213 29.48 99.9213 27.56V24.104C99.9213 22.184 99.4413 20.6907 98.4813 19.624C97.5426 18.5573 96.2733 18.024 94.6733 18.024C93.0733 18.024 91.7933 18.5573 90.8333 19.624C89.8946 20.6907 89.4253 22.184 89.4253 24.104V27.56C89.4253 29.48 89.8946 30.9733 90.8333 32.04C91.7933 33.1067 93.0733 33.64 94.6733 33.64ZM117.455 37.384C115.983 37.384 114.649 37.1387 113.455 36.648C112.26 36.1573 111.236 35.4213 110.383 34.44C109.551 33.4587 108.9 32.2533 108.431 30.824C107.961 29.3947 107.727 27.7307 107.727 25.832C107.727 23.9547 107.961 22.3013 108.431 20.872C108.9 19.4213 109.551 18.2053 110.383 17.224C111.236 16.2427 112.26 15.5067 113.455 15.016C114.649 14.5253 115.983 14.28 117.455 14.28C118.927 14.28 120.26 14.5253 121.455 15.016C122.649 15.5067 123.673 16.2427 124.527 17.224C125.38 18.2053 126.031 19.4213 126.479 20.872C126.948 22.3013 127.183 23.9547 127.183 25.832C127.183 27.7307 126.948 29.3947 126.479 30.824C126.031 32.2533 125.38 33.4587 124.527 34.44C123.673 35.4213 122.649 36.1573 121.455 36.648C120.26 37.1387 118.927 37.384 117.455 37.384ZM117.455 33.64C119.055 33.64 120.324 33.1067 121.263 32.04C122.223 30.9733 122.703 29.48 122.703 27.56V24.104C122.703 22.184 122.223 20.6907 121.263 19.624C120.324 18.5573 119.055 18.024 117.455 18.024C115.855 18.024 114.575 18.5573 113.615 19.624C112.676 20.6907 112.207 22.184 112.207 24.104V27.56C112.207 29.48 112.676 30.9733 113.615 32.04C114.575 33.1067 115.855 33.64 117.455 33.64ZM137.868 25.544L135.564 20.904H135.468V37H131.468V14.664H136.108L142.828 26.12L145.132 30.76H145.228V14.664H149.228V37H144.588L137.868 25.544Z" fill="white"/>
</svg>
